<?xml version="1.0" standalone="no"?>
<!DOCTYPE svg PUBLIC "-//W3C//DTD SVG 20010904//EN"
 "http://www.w3.org/TR/2001/REC-SVG-20010904/DTD/svg10.dtd">
<svg version="1.0" xmlns="http://www.w3.org/2000/svg"
 width="512.000000pt" height="512.000000pt" viewBox="0 0 512.000000 512.000000"
 preserveAspectRatio="xMidYMid meet">


<defs>
    <linearGradient id="gradient" gradientTransform="rotate(45)">
        <stop offset="5%"  stop-color="#23aaaa"/>
        <stop offset="95%" stop-color="#28b97d"/>
    </linearGradient>
</defs>

<g transform="translate(0.000000,512.000000) scale(0.100000,-0.100000)"
fill="url('#gradient')" stroke="none">
<path d="M377 5110 c-180 -31 -339 -196 -368 -382 -6 -39 -9 -412 -7 -983 l4
-920 22 -74 c34 -111 86 -209 157 -297 35 -44 569 -583 1187 -1199 1218 -1215
1166 -1168 1333 -1221 195 -62 405 -33 580 81 62 40 1495 1458 1642 1624 41
47 89 112 108 145 122 221 108 499 -35 713 -40 59 -2227 2252 -2329 2334 -84
69 -197 128 -303 161 l-73 23 -935 1 c-514 1 -957 -2 -983 -6z m1271 -824 c32
-17 355 -342 371 -373 35 -69 -11 -158 -84 -164 -58 -4 -69 3 -206 138 l-140
137 -82 -82 -82 -82 87 -87 c97 -99 108 -117 108 -168 0 -52 -53 -105 -105
-105 -51 0 -69 11 -167 108 l-87 86 -140 -137 -139 -137 -50 0 c-43 0 -55 5
-81 31 -27 26 -31 38 -31 82 l0 51 358 358 358 358 42 0 c24 0 55 -6 70 -14z
m672 -666 c54 -38 210 -210 235 -260 69 -137 43 -301 -67 -407 -47 -45 -138
-93 -178 -93 -33 0 -50 -17 -50 -49 0 -62 -55 -143 -177 -263 -112 -110 -122
-118 -159 -118 -82 0 -140 76 -113 148 5 15 50 68 98 117 110 112 121 129 121
182 0 37 -6 49 -54 100 l-55 58 -123 -121 c-142 -140 -161 -154 -206 -154 -79
0 -119 50 -114 140 3 33 693 727 737 739 36 11 72 4 105 -19z m635 -645 c17
-9 111 -96 208 -193 146 -148 176 -184 182 -215 14 -75 -39 -137 -119 -137
-36 0 -47 9 -180 140 l-142 139 -81 -81 -82 -82 94 -97 c70 -73 95 -105 100
-132 15 -77 -55 -147 -132 -132 -27 5 -59 30 -132 100 l-97 94 -82 -82 -81
-81 139 -142 c131 -133 140 -144 140 -180 0 -80 -62 -133 -137 -119 -31 6 -67
36 -215 182 -97 97 -184 191 -193 209 -11 23 -14 46 -9 71 5 33 50 82 358 390
231 231 360 353 376 356 45 8 52 7 85 -8z m660 -660 c17 -9 111 -96 208 -193
144 -146 176 -184 182 -214 9 -49 -16 -102 -60 -122 -73 -35 -95 -23 -255 138
l-125 126 -82 -82 -82 -82 93 -96 c67 -69 94 -105 99 -129 15 -75 -59 -149
-134 -134 -24 5 -60 32 -129 99 l-96 93 -82 -82 -82 -82 130 -130 c71 -71 134
-141 141 -157 38 -92 -63 -186 -154 -143 -19 9 -113 96 -210 193 -183 186
-201 212 -182 274 8 26 663 689 710 719 36 23 67 24 110 4z"/>
<path d="M2165 3279 l-80 -80 58 -55 c53 -49 62 -54 103 -54 85 0 141 89 103
163 -12 23 -89 107 -99 107 -3 0 -41 -36 -85 -81z"/>
</g>
</svg>
