<?xml version="1.0" standalone="no"?>
<!DOCTYPE svg PUBLIC "-//W3C//DTD SVG 20010904//EN"
 "http://www.w3.org/TR/2001/REC-SVG-20010904/DTD/svg10.dtd">
<svg version="1.0" xmlns="http://www.w3.org/2000/svg"
 width="512.000000pt" height="512.000000pt" viewBox="0 0 512.000000 512.000000"
 preserveAspectRatio="xMidYMid meet">

<defs>
    <linearGradient id="gradient" gradientTransform="rotate(45)">
        <stop offset="5%"  stop-color="#23aaaa"/>
        <stop offset="95%" stop-color="#28b97d"/>
    </linearGradient>
</defs>
<g transform="translate(0.000000,512.000000) scale(0.100000,-0.100000)"
fill="url('#gradient')" stroke="none">
<path d="M2514 5059 c-66 -8 -148 -47 -199 -92 l-40 -36 143 -143 142 -143
143 143 142 143 -40 35 c-50 44 -147 91 -200 96 -22 2 -63 1 -91 -3z"/>
<path d="M1729 4806 c-102 -27 -181 -95 -228 -196 -22 -47 -26 -69 -26 -145 1
-78 4 -97 28 -145 16 -30 58 -86 95 -123 l67 -68 -64 33 c-58 30 -73 33 -150
33 -72 0 -95 -4 -142 -26 -76 -36 -129 -86 -170 -161 -32 -59 -34 -69 -34
-158 0 -85 3 -101 29 -150 16 -30 58 -85 94 -122 l65 -68 -59 32 c-81 44 -190
51 -279 17 -82 -31 -173 -121 -203 -202 -52 -139 -18 -271 103 -396 l65 -67
-69 34 c-60 30 -79 34 -144 34 -94 0 -170 -31 -240 -100 -74 -71 -100 -129
-105 -234 -4 -81 -2 -91 27 -154 27 -59 59 -96 239 -277 114 -115 231 -225
260 -244 29 -19 82 -41 117 -50 239 -59 478 187 410 423 -9 32 -28 76 -42 98
-13 21 -21 37 -16 35 4 -2 33 -18 63 -34 50 -27 63 -30 150 -30 89 0 99 2 158
34 186 101 249 330 137 496 -23 33 -20 50 4 21 6 -8 35 -24 64 -37 77 -34 192
-33 269 3 145 67 236 231 208 376 -10 53 -40 122 -69 157 -16 19 -16 19 14 0
83 -53 107 -60 205 -60 89 0 99 2 158 34 74 40 124 93 161 171 22 46 26 69 26
140 0 148 3 144 -454 603 -218 219 -416 411 -441 427 -50 32 -145 60 -200 59
-19 0 -56 -6 -81 -13z"/>
<path d="M3224 4811 c-78 -20 -133 -60 -286 -210 -87 -85 -158 -158 -158 -164
0 -6 71 -83 158 -171 141 -143 163 -170 201 -247 59 -119 80 -242 63 -364 -39
-267 -206 -473 -442 -546 l-55 -17 -27 -71 c-36 -99 -82 -172 -153 -242 -86
-85 -148 -124 -258 -163 l-58 -21 -23 -67 c-33 -93 -85 -174 -160 -249 -75
-75 -147 -121 -243 -154 l-68 -24 -20 -58 c-71 -200 -217 -346 -415 -414 -89
-30 -269 -38 -360 -15 -141 35 -200 75 -383 255 l-168 165 -165 -164 c-91 -91
-174 -182 -185 -202 -23 -45 -24 -88 -3 -131 19 -39 1417 -1442 1458 -1463 34
-19 105 -20 138 -4 12 7 149 137 303 290 l280 278 115 6 c355 18 718 161 1009
397 53 42 387 369 742 726 603 605 647 652 673 712 26 57 28 72 24 150 -5 102
-26 149 -99 227 -69 72 -150 107 -246 107 -63 0 -82 -4 -143 -34 l-70 -35 65
67 c121 125 155 257 103 396 -30 81 -121 171 -203 202 -89 34 -198 27 -279
-17 l-59 -32 65 68 c36 37 78 92 94 122 26 49 29 65 29 150 0 79 -4 103 -24
142 -35 71 -92 130 -163 169 -59 32 -69 34 -154 34 -83 0 -96 -3 -154 -32
l-62 -33 69 73 c98 103 118 148 118 267 0 85 -3 101 -28 148 -61 116 -174 192
-295 198 -37 2 -81 0 -98 -5z"/>
<path d="M4180 1464 c-311 -311 -605 -600 -655 -642 -105 -89 -262 -193 -388
-258 l-90 -46 209 -210 c115 -115 224 -218 242 -229 39 -25 108 -27 148 -5 41
21 1439 1424 1458 1463 20 41 20 85 0 126 -14 28 -341 367 -354 367 -3 0 -259
-255 -570 -566z"/>
</g>
</svg>
