<?xml version="1.0" standalone="no"?>
<!DOCTYPE svg PUBLIC "-//W3C//DTD SVG 20010904//EN"
 "http://www.w3.org/TR/2001/REC-SVG-20010904/DTD/svg10.dtd">
<svg version="1.0" xmlns="http://www.w3.org/2000/svg"
 width="512.000000pt" height="512.000000pt" viewBox="0 0 512.000000 512.000000"
 preserveAspectRatio="xMidYMid meet">

<defs>
    <linearGradient id="gradient" gradientTransform="rotate(45)">
        <stop offset="5%"  stop-color="#23aaaa"/>
        <stop offset="95%" stop-color="#28b97d"/>
    </linearGradient>
</defs>
<g transform="translate(0.000000,512.000000) scale(0.100000,-0.100000)"
fill="url('#gradient')" stroke="none">
<path d="M2550 5109 c-707 -80 -1329 -607 -1531 -1295 -37 -127 -50 -227 -56
-438 l-6 -210 -239 -305 c-134 -173 -251 -333 -268 -367 -16 -33 -35 -93 -42
-132 -29 -173 53 -360 204 -459 20 -14 78 -42 129 -63 l92 -38 122 -338 c67
-187 132 -359 145 -384 76 -147 201 -273 344 -345 134 -68 209 -84 419 -92
l177 -6 9 -36 c6 -20 37 -143 70 -274 33 -132 67 -250 76 -264 9 -14 36 -34
60 -44 42 -19 76 -19 1044 -17 998 3 1000 3 1028 24 39 29 64 76 65 121 0 21
-68 276 -152 568 -83 292 -152 537 -152 545 -1 8 108 260 242 560 134 300 256
579 273 620 35 89 73 222 87 305 39 224 28 562 -27 825 -116 561 -413 982
-885 1254 -375 216 -854 327 -1228 285z m329 -818 c90 -64 92 -187 3 -247 -22
-15 -55 -24 -109 -28 -186 -17 -313 -74 -435 -196 -62 -63 -85 -96 -121 -171
-53 -111 -67 -170 -67 -287 1 -254 135 -469 365 -583 241 -119 527 -78 721
104 147 137 214 293 214 502 l0 99 -49 -48 c-54 -53 -101 -70 -156 -55 -78 22
-125 97 -110 175 6 33 35 67 188 222 100 101 195 190 211 199 32 17 105 19
133 4 10 -5 103 -95 207 -200 l189 -189 5 -56 c7 -83 -34 -138 -116 -157 -50
-11 -99 8 -152 57 l-47 44 -6 -142 c-4 -114 -10 -161 -31 -231 -81 -273 -260
-484 -512 -603 -137 -66 -241 -88 -404 -88 -173 0 -272 23 -425 99 -229 114
-395 303 -476 541 -41 120 -52 208 -46 354 4 95 11 146 31 213 113 379 428
644 815 686 93 11 148 5 180 -18z"/>
</g>
</svg>
